HIERARCHY
ROOT Hips
{
  OFFSET 0.000000 0.000000 0.000000
  CHANNELS 6 Xposition Yposition Zposition Xrotation Yrotation Zrotation
  JOINT Spine
  {
    OFFSET 0.294439 -23.041931 -5.594416
    CHANNELS 3 Xrotation Yrotation Zrotation
    JOINT Chest
    {
      OFFSET 0.294439 -23.041931 -5.594416
      CHANNELS 3 Xrotation Yrotation Zrotation
      JOINT Neck
      {
        OFFSET 5.598770 -15.748586 -6.569289
        CHANNELS 3 Xrotation Yrotation Zrotation
        JOINT Head
        {
          OFFSET 10.192536 6.624752 -5.574205
          CHANNELS 3 Xrotation Yrotation Zrotation
          End Site
          {
            OFFSET 0.0 0.0 5.0
          }
        }
      }
      JOINT LeftShoulder
      {
        OFFSET 13.066933 1.750226 7.926415
        CHANNELS 3 Xrotation Yrotation Zrotation
        JOINT LeftArm
        {
          OFFSET 4.510936 19.460103 -5.383970
          CHANNELS 3 Xrotation Yrotation Zrotation
          JOINT LeftForeArm
          {
            OFFSET 10.499008 -9.065568 -16.183111
            CHANNELS 3 Xrotation Yrotation Zrotation
            JOINT LeftHand
            {
              OFFSET -5.000000 0.000000 0.000000
              CHANNELS 3 Xrotation Yrotation Zrotation
              End Site
              {
                OFFSET 0.0 0.0 5.0
              }
            }
          }
        }
      }
      JOINT RightShoulder
      {
        OFFSET -13.066933 -1.750226 -7.926415
        CHANNELS 3 Xrotation Yrotation Zrotation
        JOINT RightArm
        {
          OFFSET 4.714771 21.313515 -8.453970
          CHANNELS 3 Xrotation Yrotation Zrotation
          JOINT RightForeArm
          {
            OFFSET 17.023383 -8.759746 -12.481490
            CHANNELS 3 Xrotation Yrotation Zrotation
            JOINT RightHand
            {
              OFFSET 5.000000 0.000000 0.000000
              CHANNELS 3 Xrotation Yrotation Zrotation
              End Site
              {
                OFFSET 0.0 0.0 5.0
              }
            }
          }
        }
      }
    }
  }
  JOINT LeftUpLeg
  {
    OFFSET 11.177921 -0.601902 3.295762
    CHANNELS 3 Xrotation Yrotation Zrotation
    JOINT LeftLeg
    {
      OFFSET 9.545786 39.220941 -5.659016
      CHANNELS 3 Xrotation Yrotation Zrotation
      JOINT LeftFoot
      {
        OFFSET 7.367566 31.771946 13.424232
        CHANNELS 3 Xrotation Yrotation Zrotation
        JOINT LeftToeBase
        {
          OFFSET 6.192979 15.050042 -8.701159
          CHANNELS 3 Xrotation Yrotation Zrotation
          End Site
          {
            OFFSET 0.0 0.0 5.0
          }
        }
      }
    }
  }
  JOINT RightUpLeg
  {
    OFFSET -11.177921 0.601902 -3.295762
    CHANNELS 3 Xrotation Yrotation Zrotation
    JOINT RightLeg
    {
      OFFSET -4.652360 39.225860 3.363092
      CHANNELS 3 Xrotation Yrotation Zrotation
      JOINT RightFoot
      {
        OFFSET -2.698556 26.351875 24.184242
        CHANNELS 3 Xrotation Yrotation Zrotation
        JOINT RightToeBase
        {
          OFFSET -4.745185 13.005549 -7.011612
          CHANNELS 3 Xrotation Yrotation Zrotation
          End Site
          {
            OFFSET 0.0 0.0 5.0
          }
        }
      }
    }
  }
}
MOTION
Frames: 15
Frame Time: 0.033333
0.000000 0.000000 0.000000 0.000000 0.000000 0.000000 0.000000 0.000000 0.000000 0.000000 0.000000 0.000000 0.000000 0.000000 0.000000 0.000000 0.000000 0.000000 0.000000 0.000000 0.000000 0.000000 0.000000 0.000000 -56.988960 -26.845344 132.535295 0.000000 0.000000 0.000000 0.000000 0.000000 0.000000 0.000000 0.000000 0.000000 -6.114166 22.291515 -30.333501 0.000000 0.000000 0.000000 0.000000 0.000000 0.000000 0.000000 0.000000 0.000000 0.000000 0.000000 0.000000 0.000000 0.000000 0.000000 0.000000 0.000000 0.000000 0.000000 0.000000 0.000000 0.000000 0.000000 0.000000 0.000000 0.000000 0.000000
0.000000 0.000000 0.000000 0.132754 0.132266 -0.427702 -1.529009 0.251325 -1.183862 2.112476 1.786308 -3.927853 -0.778489 2.940291 1.944568 0.000000 0.000000 0.000000 -1.213093 -0.601109 -3.077752 17.438044 13.381033 5.102140 -25.535449 -79.868997 30.291950 0.000000 0.000000 0.000000 -2.210568 -2.232060 -6.562564 -1.497125 0.253778 -2.236925 -8.307980 25.628426 -35.417306 0.000000 0.000000 0.000000 -2.282177 0.548224 -0.053625 2.719629 -0.726493 0.197543 0.130991 -0.674731 -1.081245 0.000000 0.000000 0.000000 -1.573814 -0.195372 0.124360 1.170884 0.217463 -0.102909 0.895500 0.358069 0.061945 0.000000 0.000000 0.000000
0.000000 0.000000 0.000000 0.219089 0.709842 -0.625419 -2.622653 0.437979 -2.154477 3.143539 5.124441 -6.616222 -2.074670 7.862702 4.724273 0.000000 0.000000 0.000000 -2.613299 -2.077625 -9.025859 41.834779 27.394518 16.959684 14.797001 -50.551733 -30.752614 0.000000 0.000000 0.000000 -1.700828 -3.879077 -10.451056 -1.675717 -4.826916 1.259912 -5.732080 23.221346 -27.387742 0.000000 0.000000 0.000000 -3.041588 0.684353 -0.340771 3.986352 -1.107366 0.361980 0.155559 -0.787106 -1.260871 0.000000 0.000000 0.000000 -2.085994 -0.273844 0.399064 -1.467089 -0.338329 0.212307 -1.561135 -0.178818 0.708669 0.000000 0.000000 0.000000
0.000000 0.000000 0.000000 0.320700 1.977571 -0.766187 -1.188086 0.737031 -3.242391 2.406704 10.155586 -6.986062 -4.380212 15.183707 7.400996 0.000000 0.000000 0.000000 -10.753680 -1.228799 -10.012259 56.675305 47.918748 24.174891 6.167797 -33.242119 -20.461426 0.000000 0.000000 0.000000 -2.457448 -4.879866 -13.119175 4.853339 -6.316212 11.270892 -0.933797 23.373883 -4.512083 0.000000 0.000000 0.000000 -4.115847 0.824929 -0.997388 6.508581 -1.955992 0.824036 -0.278876 -1.191524 -2.263524 0.000000 0.000000 0.000000 -2.528259 -0.404089 1.659042 -2.671377 -0.634763 0.419238 -1.611509 2.410193 5.459129 0.000000 0.000000 0.000000
0.000000 0.000000 0.000000 0.388832 2.839970 -0.863478 -0.505167 0.813636 -3.441569 2.016621 11.922883 -6.912541 -5.119821 16.677667 7.439929 0.000000 0.000000 0.000000 -11.239942 -1.220676 -10.175368 59.783020 51.522218 26.166436 5.576031 -32.328726 -19.074532 0.000000 0.000000 0.000000 -2.642478 -4.287360 -11.710140 6.362337 -7.763620 14.410483 -0.613306 22.725033 -3.051268 0.000000 0.000000 0.000000 -4.394259 0.836782 -1.289636 7.386717 -2.289312 1.041037 0.059927 -1.461823 -2.511383 0.000000 0.000000 0.000000 -2.878416 -0.469179 2.140694 -2.597940 -0.600278 0.387564 -0.801496 2.746965 5.633216 0.000000 0.000000 0.000000
0.000000 0.000000 0.000000 0.454188 3.335275 -1.019281 -0.720105 0.820951 -3.512926 2.047516 11.769700 -6.913103 -4.861687 16.038837 7.334163 0.000000 0.000000 0.000000 -10.102542 -1.391662 -10.202560 58.427446 51.191912 25.152693 5.441048 -34.345909 -17.482923 0.000000 0.000000 0.000000 -2.622573 -4.011702 -11.032427 5.849816 -9.338632 15.137296 -1.110969 22.463516 -5.590263 0.000000 0.000000 0.000000 -4.677891 0.843848 -1.606286 8.020724 -2.320280 0.781965 0.193340 -1.573475 -2.619591 0.000000 0.000000 0.000000 -3.672987 -0.549591 2.171404 -2.098249 -0.462722 0.284317 -0.167168 2.478837 4.762257 0.000000 0.000000 0.000000
0.000000 0.000000 0.000000 0.641637 4.264987 -1.573248 1.672118 0.981060 -3.712320 1.097773 16.357089 -6.903031 -6.162264 17.746647 6.676604 0.000000 0.000000 0.000000 -18.480919 3.844639 -1.450312 65.083970 66.147839 29.264672 2.392819 -29.587531 -9.042948 0.000000 0.000000 0.000000 -9.237844 -3.262490 -11.017316 6.972162 -7.619315 15.051961 -1.291289 23.371858 -6.237216 0.000000 0.000000 0.000000 -4.559006 0.088956 -5.540137 15.083010 -1.654077 -3.503153 2.976670 -5.998262 -9.156327 0.000000 0.000000 0.000000 -4.908727 -0.828980 5.932662 2.878799 -0.173320 0.492391 4.475851 4.733324 6.595056 0.000000 0.000000 0.000000
0.000000 0.000000 0.000000 0.670386 4.627861 -1.625375 1.044916 0.836544 -3.258399 0.464122 16.045807 -5.546616 -6.012526 17.475168 6.693140 0.000000 0.000000 0.000000 -14.814879 4.622025 2.414791 52.635814 66.690131 18.515640 3.823163 -37.083444 -11.365456 0.000000 0.000000 0.000000 -9.666769 -2.492150 -9.533902 4.035931 -6.843081 10.649827 -2.610121 22.251343 -13.215808 0.000000 0.000000 0.000000 -4.010579 -0.440731 -7.920747 15.557576 0.025717 -6.529102 4.477142 -8.719901 -13.898716 0.000000 0.000000 0.000000 -3.497948 -0.794393 7.006482 4.104070 -1.637787 2.105085 4.962678 5.346114 7.640115 0.000000 0.000000 0.000000
0.000000 0.000000 0.000000 0.640611 4.668828 -1.502697 -2.578782 0.667917 -3.196370 -0.322302 16.457802 -4.169809 -3.908633 14.347378 7.464940 0.000000 0.000000 0.000000 -13.517198 9.538655 14.634174 1.105047 53.371022 -22.964359 -14.092748 -28.810199 51.397130 0.000000 0.000000 0.000000 -0.092872 -2.250185 -5.770269 1.342935 -12.307592 11.983878 -1.111247 9.927327 -12.742683 0.000000 0.000000 0.000000 -0.413248 -1.264254 -9.374105 12.341142 2.602302 -10.169424 6.372807 -11.670696 -19.506748 0.000000 0.000000 0.000000 -3.455791 -0.913988 9.250048 6.815819 -1.711140 2.373742 7.038678 8.472393 13.689426 0.000000 0.000000 0.000000
0.000000 0.000000 0.000000 0.655790 5.211387 -1.470371 -2.404877 0.558910 -2.670044 -0.453296 16.547072 -3.946238 -8.188947 20.034799 5.399266 0.000000 0.000000 0.000000 -16.253407 10.104069 13.432741 16.755214 18.201230 2.838900 -100.713868 -59.899759 128.961202 0.000000 0.000000 0.000000 -5.363123 3.239790 4.429692 12.955964 -1.498890 17.407847 -0.579786 21.236487 -3.091887 0.000000 0.000000 0.000000 0.557184 -1.425665 -9.444647 12.476968 2.255525 -9.567493 4.626694 -10.654445 -17.934374 0.000000 0.000000 0.000000 -1.572229 -1.005581 11.518765 7.135059 -3.920683 4.533247 4.687381 5.937099 9.082892 0.000000 0.000000 0.000000
0.000000 0.000000 0.000000 0.631210 5.424124 -1.335434 -2.208321 0.305387 -1.498612 0.332809 16.259178 -5.374818 -10.380482 21.645895 3.438287 0.000000 0.000000 0.000000 -13.303919 0.688718 -6.154289 34.675586 17.828925 14.608402 65.294767 -71.030968 -83.828933 0.000000 0.000000 0.000000 -1.701876 7.430182 16.372438 22.827571 8.062535 21.956437 -1.321993 31.475201 -4.688909 0.000000 0.000000 0.000000 0.448842 -1.382951 -9.253979 11.638288 2.278783 -9.384244 2.832120 -9.826011 -16.911538 0.000000 0.000000 0.000000 -1.680329 -1.086754 12.655670 6.881009 -4.846846 5.427362 4.376554 5.709870 8.755586 0.000000 0.000000 0.000000
0.000000 0.000000 0.000000 0.545884 4.772171 -1.115194 -2.091699 0.266967 -1.313059 3.466149 11.057273 -9.222412 -7.711497 15.547824 2.568511 0.000000 0.000000 0.000000 -1.265260 -12.654768 -46.698939 18.936460 -18.245608 19.656150 127.478462 -43.036306 -157.983715 0.000000 0.000000 0.000000 0.930564 8.262877 20.805697 28.187186 10.016960 26.316964 1.313697 34.610497 4.214717 0.000000 0.000000 0.000000 2.057108 -1.356732 -6.954472 12.315808 2.453887 -9.889535 1.676145 -8.288754 -14.321883 0.000000 0.000000 0.000000 2.683306 -1.082703 12.893449 10.082538 -7.867601 8.271799 1.265328 4.520947 7.946547 0.000000 0.000000 0.000000
0.000000 0.000000 0.000000 0.456621 4.105883 -0.891115 -0.179926 -0.178318 0.730025 5.836744 5.183118 -11.186589 -4.126343 3.573168 -3.117074 0.000000 0.000000 0.000000 13.492062 -12.110007 -63.086907 9.095630 -28.895129 22.614317 143.522037 -31.972493 -169.213643 0.000000 0.000000 0.000000 1.438997 10.727675 26.983560 27.633807 6.909867 27.570986 1.030162 30.771553 3.742381 0.000000 0.000000 0.000000 -2.306557 -0.422271 -6.002963 8.384311 3.830228 -11.558942 -2.712231 -7.280950 -14.355730 0.000000 0.000000 0.000000 6.484026 -0.911144 11.811919 14.361467 -8.872942 8.999886 3.477696 3.141798 3.857631 0.000000 0.000000 0.000000
0.000000 0.000000 0.000000 0.206230 0.476765 -0.620474 0.134193 -0.408019 1.679209 6.265728 2.370928 -10.941739 -1.958731 3.399792 0.373784 0.000000 0.000000 0.000000 24.918169 -7.818935 -56.214423 5.994911 -31.928243 23.987044 152.894448 -26.468655 -173.510647 0.000000 0.000000 0.000000 2.529912 11.185447 29.323214 29.021219 15.515793 24.158913 -1.492563 36.951340 -4.465095 0.000000 0.000000 0.000000 -1.389728 -0.512948 -5.470248 6.582641 2.720699 -8.798355 -0.971126 -10.535755 -19.693948 0.000000 0.000000 0.000000 7.498623 -0.457545 8.905556 13.048912 -11.804964 11.653487 5.184573 2.030886 0.385215 0.000000 0.000000 0.000000
0.000000 0.000000 0.000000 -0.183516 -0.063358 0.609617 0.661942 -0.805067 3.268634 4.852376 0.831334 -8.159882 -5.308329 12.115316 3.341732 0.000000 0.000000 0.000000 -1.072993 -4.421686 -16.702980 21.589429 -11.401233 17.521193 147.805200 -27.297144 -171.983065 0.000000 0.000000 0.000000 -8.833790 12.240824 19.802312 13.089299 -7.070578 21.899283 -0.837434 16.697460 -5.701814 0.000000 0.000000 0.000000 -9.751322 1.614149 -3.366530 3.276553 1.564887 -5.144578 -2.757484 -9.520633 -18.406339 0.000000 0.000000 0.000000 9.074132 -0.364656 8.729642 12.211074 -11.792705 11.720685 7.264331 0.339465 -4.849806 0.000000 0.000000 0.000000
